<?xml version="1.0" encoding="UTF-8"?>
<svg xmlns="http://www.w3.org/2000/svg" viewBox="0 0 458 458" width="458" height="458">
<path d="M120.2 269.25C118.48 270.54 115.47 269.91 113.25 269.91C107.76 269.91 98.79 271.11 93.75 269.67C91.75 264.15 89.75 258.63 87.75 253.11C79.75 251.63 70.41 252.86 62.25 252.86C59.85 252.86 55.39 251.95 53.57 253.8C51.63 255.78 49.48 266.22 46.94 269.9C38.71 269.9 30.48 269.9 22.25 269.9C21.78 266.39 23.92 263.45 25.1 260.28C25.46 259.33 25.27 258.28 25.59 257.32C25.87 256.46 26.71 256.07 27.03 255.23C27.38 254.3 27.18 253.22 27.5 252.28C28.62 248.92 30.56 245.46 31.92 242.17C34.14 236.8 35.36 230.74 37.6 225.34C42.17 214.33 46.39 202.99 50.69 191.94C53.33 185.15 54.71 178.25 58.25 171.92C63.94 170.56 71.35 171.73 77.25 171.74C79.37 171.74 82.35 171.14 84.08 172.68C84.4 172.97 86.86 180.22 87.29 181.44C89.85 188.73 92.79 195.83 95.14 203.17C95.45 204.13 96.27 204.75 96.62 205.68C97.95 209.11 98.58 213.32 100.23 216.57C100.56 217.22 101.32 217.46 101.62 218.17C102.02 219.12 101.7 220.24 102.02 221.22C103.16 224.73 105.04 228.41 106.47 231.8C106.92 232.87 106.64 234.1 107.08 235.17C111.75 246.41 116.29 257.8 120.2 269.25ZM291.25 171.75C293.32 177.06 291.85 188.25 291.85 194.25C291.85 211.25 291.85 228.25 291.85 245.25C291.85 250.45 293.09 266.02 291.25 269.91C284.21 269.91 277.17 269.91 270.12 269.91C268.41 266.38 269.51 252.92 269.51 248.25C269.51 230.75 269.53 213.25 269.51 195.75C269.51 190.71 268.32 175.48 270.25 171.75C277.25 171.75 284.25 171.75 291.25 171.75ZM426.56 190.13C428.29 190.34 430.01 190.54 431.74 190.75C431.97 191.98 432.2 193.22 432.42 194.45C430.34 194.39 428.26 194.32 426.18 194.25C426.3 192.88 426.43 191.51 426.56 190.13ZM187.75 198.62C188.43 202.03 189.05 213.05 187.93 216.19C187.13 218.45 183.45 220.84 181.76 222.52C175.25 228.97 168.68 235.49 162.44 242.19C160.25 244.53 153.7 249.42 152.75 251.97C154.29 253.84 160.29 252.75 162.75 252.75C171.13 252.75 182 251.42 190.07 253C190.07 258.63 190.07 264.27 190.07 269.91C167.62 269.91 145.16 269.91 122.71 269.91C121.79 267.97 121.37 253.47 122.38 251.63C123.57 249.48 128.54 245.64 130.52 243.77C136.54 238.12 142.15 232.08 148.13 226.38C150.73 223.9 155.03 220.95 156.55 217.75C154.66 216.19 150.7 216.99 148.25 216.99C141.25 216.99 132.73 218.28 125.95 216.75C124.91 213.94 124.87 201.2 126.16 198.62C146.69 198.62 167.22 198.62 187.75 198.62ZM214.81 198.63C216.38 201.9 215.43 207.13 215.43 210.75C215.43 219.92 215.44 229.08 215.43 238.25C215.42 245.32 217.72 252.67 225.75 253.02C245.58 253.86 240.68 223.21 240.67 210.25C240.67 206.88 239.73 201.84 241.25 198.83C244.81 197.95 259.83 197.75 262.93 199.16C262.93 222.74 262.93 246.32 262.93 269.9C255.71 269.9 248.48 269.9 241.25 269.9C240.92 267.17 240.58 264.45 240.25 261.72C238.47 262.59 236.87 265.47 235.13 266.88C231.92 269.49 227.42 271.55 223.25 272.1C219.98 272.53 216.03 272.46 212.75 272.14C204.16 271.3 197.61 265.85 194.86 257.84C194.53 256.87 193.64 256.27 193.39 255.24C191.72 248.35 192.79 232.96 192.79 225.25C192.78 217.97 191.42 205.22 193.25 198.63C200.44 198.63 207.62 198.63 214.81 198.63ZM70.25 201.12C68.68 203.65 68.85 206.92 67.75 209.56C67.43 210.32 66.51 210.61 66.25 211.43C65.85 212.73 66.17 214.27 65.78 215.61C64.68 219.47 62.81 223.49 61.42 227.24C60.65 229.33 60.62 231.22 59.66 233.25C60.97 234.45 63.48 233.84 65.25 233.83C70.3 233.83 75.86 234.48 80.83 233.75C81.63 230.45 79.33 226.98 78.29 223.96C77.85 222.66 78.2 221.17 77.76 219.9C77.48 219.1 76.61 218.75 76.31 217.91C75.22 214.81 74.64 211.47 73.38 208.35C72.24 205.53 73.13 203.06 70.25 201.12ZM389 242.16C386.75 242.41 384.5 242.67 382.25 242.93C382.15 244.03 382.05 245.14 381.94 246.25C381.71 246.39 381.47 246.53 381.24 246.67C380.64 241.05 384.02 240.13 389 242.16ZM384.07 254.08C386.54 254.31 389.02 254.53 391.5 254.75C391.59 255.99 391.69 257.22 391.78 258.46C391.79 258.48 391.8 258.51 391.8 258.54C391.45 257.35 391.1 256.16 390.75 254.97C388.5 254.84 386.24 254.72 383.99 254.59C384.01 254.42 384.04 254.25 384.07 254.08Z" fill="#131e3e" fill-rule="evenodd" stroke="#131e3e" stroke-width="0.25" stroke-linejoin="round"/>
<path d="M353.46 171C353.63 173.25 353.79 175.5 353.96 177.75C356.39 179.44 363.24 179.14 365.98 178.25C366.2 175.96 366.41 173.68 366.62 171.39C368.12 171.58 369.62 171.76 371.12 171.94C371.08 182.04 371.04 192.15 371 202.25C370.17 202.75 369.33 203.25 368.5 203.75C368.83 207.25 369.17 210.75 369.5 214.25C368.18 215.5 366.87 216.75 365.55 218C365.4 217.19 365.24 216.37 365.08 215.56C365.49 215.2 365.9 214.85 366.31 214.49C366.32 210.57 366.33 206.65 366.35 202.73C366.06 202.47 365.78 202.21 365.5 201.95C360.99 201.91 356.47 201.88 351.96 201.85C351.56 200.89 351.15 199.94 350.75 198.99C345.44 198.83 340.12 198.67 334.81 198.5C333.21 194.03 334.44 184.77 334.43 179.75C334.43 177.29 333.95 174.46 335.09 172.25C340.24 170.36 349.1 173.78 353.46 171ZM403.5 178.19C406.81 178.38 410.11 178.56 413.42 178.75C413.48 179.82 413.53 180.88 413.59 181.95C411.85 183.69 412.45 194.93 413.07 197.72C410.34 200.03 405.3 197.58 402.06 199.04C399.81 200.24 401.23 202.3 400.25 204C400.06 200.25 399.86 196.5 399.67 192.75C397.08 192.53 394.5 192.31 391.92 192.08C394.94 191.64 397.96 191.19 400.98 190.75C400.93 186.75 400.87 182.75 400.81 178.75C401.71 178.56 402.6 178.38 403.5 178.19ZM390.3 192.58C390.17 192.81 390.04 193.03 389.91 193.25C390.27 193.58 390.64 193.92 391 194.25C390.91 196.86 390.81 199.47 390.72 202.08C384.48 201.97 378.24 201.86 372 201.75C377.15 200.72 384.77 204.43 389.5 200.75C389.42 198 389.33 195.25 389.25 192.5C389.6 192.53 389.95 192.56 390.3 192.58ZM417.1 204.5C417.62 205.7 417.23 205.9 418.61 206.75C417.7 207.08 416.79 207.42 415.88 207.75C417.85 208.11 420.56 208.18 422 206.75C420.49 206.57 419.15 207.01 418.25 205.43C422.92 205.4 427.58 205.38 432.25 205.35C432.61 208.26 431.92 208.19 430 209.8C429.83 209.8 429.67 209.8 429.5 209.8C427.67 209.62 425.83 209.43 424 209.25C425.67 209.08 427.33 208.92 429 208.75C426.7 208.29 424.92 208.44 422.75 207.36C421.09 209.22 421.19 211.67 421.75 214.18C422.34 214.26 422.93 214.34 423.53 214.42C423.43 219.46 423.34 224.5 423.25 229.53C422.83 229.75 422.42 229.96 422 230.17C421.58 230.08 421.17 229.99 420.75 229.9C420.01 227.72 419.24 228.05 417.35 227.25C417.43 227.24 417.52 227.23 417.6 227.21C417.56 226.98 417.52 226.74 417.47 226.5C419.07 226.08 419.19 220.27 417.5 219.25C418.17 218.92 418.83 218.58 419.5 218.25C419.21 218.06 418.45 217.25 418.21 217.2C417.44 217.03 415.97 218.03 415 217.99C411.11 217.83 406.45 217.12 402.75 218.5C404.71 215.45 404.39 210.77 403.75 207.15C403.67 209.35 403.58 211.55 403.5 213.75C400.69 215.22 396.63 215.51 393.27 214.98C392.6 214.88 392.05 214.38 391.34 214.59C390.71 214.78 390.52 215.48 390.25 216C390.33 215.05 390.42 214.1 390.5 213.15C394.08 213.27 397.67 213.4 401.25 213.52C401.32 211.1 401.39 208.67 401.45 206.25C401.8 205.84 402.15 205.43 402.5 205.02C407.37 204.85 412.23 204.67 417.1 204.5ZM389 242.16C392.25 242.51 395.5 242.87 398.75 243.23C399.06 244.68 399.36 246.12 399.67 247.57C399.46 248.63 399.26 249.69 399.06 250.75C398.04 251.25 397.03 251.75 396.02 252.25C395.94 254.42 395.86 256.58 395.77 258.75C394.21 259.47 393 259.72 391.78 258.46C391.69 257.22 391.59 255.99 391.5 254.75C389.02 254.53 386.54 254.31 384.07 254.08C383.81 253.97 383.56 253.86 383.3 253.75C382.76 251.92 382.23 250.08 381.69 248.25C381.36 247.98 381.03 247.71 380.71 247.44C380.88 247.19 381.06 246.93 381.24 246.67C381.47 246.53 381.71 246.39 381.94 246.25C382.05 245.14 382.15 244.03 382.25 242.93C384.5 242.67 386.75 242.41 389 242.16Z" fill="#20b9e6" fill-rule="evenodd" stroke="#20b9e6" stroke-width="0.25" stroke-linejoin="round"/>
<path d="M403.5 178.19C402.6 178.38 401.71 178.56 400.81 178.75C400.87 182.75 400.93 186.75 400.98 190.75C397.96 191.19 394.94 191.64 391.92 192.08C391.38 192.25 390.84 192.42 390.3 192.58C389.95 192.56 389.6 192.53 389.25 192.5C389.33 195.25 389.42 198 389.5 200.75C384.77 204.43 377.15 200.72 372 201.75C378.24 201.86 384.48 201.97 390.72 202.08C390.48 202.47 390.24 202.86 390 203.25C390.17 206.55 390.33 209.85 390.5 213.15C390.42 214.1 390.33 215.05 390.25 216C390.52 215.48 390.71 214.78 391.34 214.59C392.05 214.38 392.6 214.88 393.27 214.98C396.63 215.51 400.69 215.22 403.5 213.75C403.58 211.55 403.67 209.35 403.75 207.15C404.39 210.77 404.71 215.45 402.75 218.5C406.45 217.12 411.11 217.83 415 217.99C415.97 218.03 417.44 217.03 418.21 217.2C418.45 217.25 419.21 218.06 419.5 218.25C418.83 218.58 418.17 218.92 417.5 219.25C419.19 220.27 419.07 226.08 417.47 226.5C417.31 224.08 417.15 221.67 416.98 219.25C412.33 217.95 405.63 218.71 400.75 218.89C398.41 218.98 395.86 218.56 395.55 221.25C396.7 221.58 397.85 221.92 399 222.25C399.08 224.83 399.17 227.42 399.25 230C396.81 231.33 393.5 230.83 390.78 230.7C390.27 230.57 389.76 230.43 389.25 230.3C389 229.45 388.74 228.6 388.49 227.75C385.41 227.07 372.74 226.7 370.51 228.5C370.26 227.44 370 226.38 369.75 225.32C368.42 225.33 367.08 225.34 365.75 225.35C365.68 222.9 365.62 220.45 365.55 218C366.87 216.75 368.18 215.5 369.5 214.25C369.17 210.75 368.83 207.25 368.5 203.75C369.33 203.25 370.17 202.75 371 202.25C371.04 192.15 371.08 182.04 371.12 171.94C374.66 171.89 378.21 171.84 381.75 171.79C382.13 172.03 382.5 172.26 382.88 172.5C383 174.19 383.13 175.88 383.25 177.58C385.42 178.88 389.48 178.55 392 178.16C392.5 178.19 393 178.22 393.5 178.25C393.75 176.05 394 173.86 394.25 171.66C396.08 171.67 397.92 171.68 399.75 171.68C399.86 173.71 399.98 175.73 400.09 177.75C401.23 177.9 402.36 178.04 403.5 178.19ZM427.96 188.48C428.56 188.82 429.15 189.16 429.75 189.5C431.55 188.72 431.81 188.89 433.62 189.75C433.62 191.31 433.62 192.88 433.62 194.44C433.41 194.51 433.2 194.58 432.99 194.65C432.8 194.59 432.61 194.52 432.42 194.45C432.2 193.22 431.97 191.98 431.74 190.75C430.01 190.54 428.29 190.34 426.56 190.13C427.02 189.58 427.49 189.03 427.96 188.48ZM420.79 198.03C421.67 198.02 422.56 198.02 423.44 198.02C423.72 198.76 423.99 199.51 424.27 200.25C427.51 200.35 430.75 200.44 433.98 200.54C434.59 202.31 432.99 208.51 431.73 209.75C431.15 209.77 430.58 209.78 430 209.8C431.92 208.19 432.61 208.26 432.25 205.35C427.58 205.38 422.92 205.4 418.25 205.43C419.15 207.01 420.49 206.57 422 206.75C420.56 208.18 417.85 208.11 415.88 207.75C416.79 207.42 417.7 207.08 418.61 206.75C417.23 205.9 417.62 205.7 417.1 204.5C418.82 199.57 415.22 200.28 420.79 198.03ZM429.5 209.8C429.37 209.91 429.25 210.03 429.12 210.14C426.39 209.89 421.41 209.39 423.56 213.58C423.55 213.86 423.54 214.14 423.53 214.42C422.93 214.34 422.34 214.26 421.75 214.18C421.19 211.67 421.09 209.22 422.75 207.36C424.92 208.44 426.7 208.29 429 208.75C427.33 208.92 425.67 209.08 424 209.25C425.83 209.43 427.67 209.62 429.5 209.8ZM370.51 229.02C370.68 235.04 370.85 241.06 371.02 247.08C369.73 246.06 370.37 243.91 370.38 242.25C370.39 237.9 369.98 233.32 370.51 229.02ZM416.89 242.5C416.36 244.92 411.2 243.62 409.08 243.93C409.06 243.54 409.03 243.14 409 242.75C409.58 242.5 410.17 242.25 410.75 242C412.8 242.17 414.84 242.33 416.89 242.5Z" fill="#2796c2" fill-rule="evenodd" stroke="#2796c2" stroke-width="0.25" stroke-linejoin="round"/>
<path d="M392 178.16C389.48 178.55 385.42 178.88 383.25 177.58C383.13 175.88 383 174.19 382.88 172.5C383.17 169.75 383.46 167.01 383.75 164.26C386.42 164.28 389.08 164.29 391.75 164.31C391.83 168.93 391.92 173.55 392 178.16ZM413.59 181.95C417.78 181.75 419.6 180.66 420.94 184.98C420.89 189.33 420.84 193.68 420.79 198.03C415.22 200.28 418.82 199.57 417.1 204.5C412.23 204.67 407.37 204.85 402.5 205.02C402.35 203.03 402.2 201.04 402.06 199.04C405.3 197.58 410.34 200.03 413.07 197.72C414.49 195.44 413.74 185.25 413.59 181.95ZM432.99 194.65C433.2 194.58 433.41 194.51 433.62 194.44C435.46 196.05 436.09 198.78 433.98 200.54C430.75 200.44 427.51 200.35 424.27 200.25C423.99 199.51 423.72 198.76 423.44 198.02C423.71 197.04 423.98 196.07 424.25 195.09C427.16 194.95 430.08 194.8 432.99 194.65ZM334.81 198.5C340.12 198.67 345.44 198.83 350.75 198.99C351.15 199.94 351.56 200.89 351.96 201.85C353.21 202.81 363.9 202.8 365.5 201.95C365.78 202.21 366.06 202.47 366.35 202.73C366.33 206.65 366.32 210.57 366.31 214.49C365.9 214.85 365.49 215.2 365.08 215.56C359.97 215.33 354.86 215.11 349.75 214.89C349.4 212.84 349.05 210.8 348.7 208.75C341.72 208.56 334.73 208.36 327.75 208.17C327.75 205.12 327.75 202.08 327.75 199.04C330.1 198.86 332.46 198.68 334.81 198.5ZM417.47 226.5C417.52 226.74 417.56 226.98 417.6 227.21C417.57 231.14 417.55 235.07 417.52 239C417.31 239.84 417.1 240.68 416.89 241.52C414.17 241.51 411.46 241.51 408.75 241.5C408.61 242 408.47 242.5 408.34 243C408.08 242.42 407.83 241.83 407.57 241.25C406.47 241.03 405.36 240.81 404.25 240.59C404.07 238.48 403.88 236.36 403.7 234.25C399.22 233.97 394.73 233.69 390.25 233.4C390.43 232.5 390.61 231.6 390.78 230.7C393.5 230.83 396.81 231.33 399.25 230C399.17 227.42 399.08 224.83 399 222.25C397.85 221.92 396.7 221.58 395.55 221.25C395.86 218.56 398.41 218.98 400.75 218.89C405.63 218.71 412.33 217.95 416.98 219.25C417.15 221.67 417.31 224.08 417.47 226.5Z" fill="#ddc010" fill-rule="evenodd" stroke="#ddc010" stroke-width="0.25" stroke-linejoin="round"/>
<path d="M420.94 184.98C423.05 185.18 425.15 185.37 427.25 185.57C427.49 186.54 427.72 187.51 427.96 188.48C427.49 189.03 427.02 189.58 426.56 190.13C426.43 191.51 426.3 192.88 426.18 194.25C428.26 194.32 430.34 194.39 432.42 194.45C432.61 194.52 432.8 194.59 432.99 194.65C430.08 194.8 427.16 194.95 424.25 195.09C423.98 196.07 423.71 197.04 423.44 198.02C422.56 198.02 421.67 198.02 420.79 198.03C420.84 193.68 420.89 189.33 420.94 184.98ZM429.12 210.14C431.3 214.4 426.17 213.81 423.56 213.58C421.41 209.39 426.39 209.89 429.12 210.14ZM390.78 230.7C390.61 231.6 390.43 232.5 390.25 233.4C394.73 233.69 399.22 233.97 403.7 234.25C403.88 236.36 404.07 238.48 404.25 240.59C405.36 240.81 406.47 241.03 407.57 241.25C407.83 241.83 408.08 242.42 408.34 243C408.24 243.5 408.15 244 408.06 244.5C407.98 245.25 407.9 246 407.82 246.75C405.64 248.51 402.35 247.8 399.67 247.57C399.36 246.12 399.06 244.68 398.75 243.23C395.5 242.87 392.25 242.51 389 242.16C384.02 240.13 380.64 241.05 381.24 246.67C381.06 246.93 380.88 247.19 380.71 247.44C377.48 247.32 374.25 247.2 371.02 247.08C370.85 241.06 370.68 235.04 370.51 229.02C370.51 228.85 370.51 228.68 370.51 228.5C372.74 226.7 385.41 227.07 388.49 227.75C388.74 228.6 389 229.45 389.25 230.3C389.76 230.43 390.27 230.57 390.78 230.7ZM391.8 258.54C389.68 262.02 391.89 266.1 390.25 269.57C387.97 270.7 378.25 270.53 375.75 269.65C375.75 265.11 375.75 260.56 375.75 256.02C378.5 255.54 381.24 255.07 383.99 254.59C386.24 254.72 388.5 254.84 390.75 254.97C391.1 256.16 391.45 257.35 391.8 258.54Z" fill="#db2b18" fill-rule="evenodd" stroke="#db2b18" stroke-width="0.25" stroke-linejoin="round"/>
<path d="M366.62 171.39C366.41 173.68 366.2 175.96 365.98 178.25C363.24 179.14 356.39 179.44 353.96 177.75C353.79 175.5 353.63 173.25 353.46 171C353.72 168.11 353.99 165.22 354.25 162.33C356.88 160.94 362.79 161.31 365.75 161.84C366.04 165.03 366.33 168.21 366.62 171.39ZM413.59 181.95C413.74 185.25 414.49 195.44 413.07 197.72C412.45 194.93 411.85 183.69 413.59 181.95ZM391.92 192.08C394.5 192.31 397.08 192.53 399.67 192.75C399.86 196.5 400.06 200.25 400.25 204C401.23 202.3 399.81 200.24 402.06 199.04C402.2 201.04 402.35 203.03 402.5 205.02C402.15 205.43 401.8 205.84 401.45 206.25C401.39 208.67 401.32 211.1 401.25 213.52C397.67 213.4 394.08 213.27 390.5 213.15C390.33 209.85 390.17 206.55 390 203.25C390.24 202.86 390.48 202.47 390.72 202.08C390.81 199.47 390.91 196.86 391 194.25C390.64 193.92 390.27 193.58 389.91 193.25C390.04 193.03 390.17 192.81 390.3 192.58C390.84 192.42 391.38 192.25 391.92 192.08ZM351.96 201.85C356.47 201.88 360.99 201.91 365.5 201.95C363.9 202.8 353.21 202.81 351.96 201.85ZM366.35 202.73C366.33 206.65 366.32 210.57 366.31 214.49C366.32 210.57 366.33 206.65 366.35 202.73Z" fill="#3bae47" fill-rule="evenodd" stroke="#3bae47" stroke-width="0.25" stroke-linejoin="round"/>
<path d="M417.6 227.21C417.52 227.23 417.43 227.24 417.35 227.25C419.24 228.05 420.01 227.72 420.75 229.9C421.17 229.99 421.58 230.08 422 230.17C421.67 230.53 421.33 230.89 421 231.25C420.92 233.67 420.83 236.08 420.75 238.5C419.67 238.67 418.6 238.83 417.52 239C417.55 235.07 417.57 231.14 417.6 227.21ZM416.89 241.52C416.89 241.85 416.89 242.17 416.89 242.5C414.84 242.33 412.8 242.17 410.75 242C410.17 242.25 409.58 242.5 409 242.75C409.03 243.14 409.06 243.54 409.08 243.93C408.74 244.12 408.4 244.31 408.06 244.5C408.15 244 408.24 243.5 408.34 243C408.47 242.5 408.61 242 408.75 241.5C411.46 241.51 414.17 241.51 416.89 241.52Z" fill="#ffffff" fill-rule="evenodd" stroke="#ffffff" stroke-width="0.25" stroke-linejoin="round"/>
</svg>