<?xml version="1.0" encoding="UTF-8"?>
<svg xmlns="http://www.w3.org/2000/svg" viewBox="0 0 796 385" width="796" height="385">
<path d="M0.13 0.13C265.38 0.13 530.63 0.13 795.88 0.13C795.88 128.38 795.88 256.63 795.88 384.88C530.63 384.88 265.38 384.88 0.13 384.88C0.13 256.63 0.13 128.38 0.13 0.13ZM227.74 119.16C208.23 119.16 188.73 119.16 169.22 119.16C169.22 151.15 169.22 183.15 169.22 215.14C188.73 215.14 208.23 215.14 227.74 215.14C227.74 210.14 227.74 205.14 227.74 200.13C213.28 200.13 198.82 200.13 184.36 200.13C184.36 191.84 184.36 183.54 184.36 175.25C197.51 174.92 210.67 174.58 223.82 174.25C223.82 169.58 223.82 164.92 223.82 160.25C210.67 159.97 197.53 159.69 184.38 159.41C184.38 151.01 184.38 142.61 184.38 134.21C198.83 134.21 213.28 134.21 227.74 134.21C227.74 129.19 227.74 124.17 227.74 119.16ZM349.35 119.25C340.07 118.61 320.58 116.21 317.23 127.91C315.58 133.65 318.2 140.23 316.25 145.82C311.86 145.82 307.46 145.82 303.07 145.82C303.07 150.56 303.07 155.3 303.07 160.05C307.63 160.05 312.19 160.05 316.76 160.05C316.76 178.41 316.76 196.77 316.76 215.13C321.84 215.13 326.92 215.13 332 215.13C332 196.76 332 178.4 332 160.04C337.79 160.04 343.58 160.04 349.37 160.04C349.37 155.3 349.37 150.56 349.37 145.82C343.6 145.82 337.82 145.82 332.05 145.82C332.05 141.8 332.05 137.77 332.05 133.75C337.82 133.42 343.58 133.08 349.35 132.75C349.35 128.25 349.35 123.75 349.35 119.25ZM294.75 166.68C296.27 159.66 289.06 152.48 283.87 148.87C272.2 140.75 250.58 142.79 243.13 155.88C241.22 159.25 240.86 162.94 241.04 166.75C241.72 180.66 254.71 185.18 266.75 186.1C272.21 186.51 282.02 186.85 282.11 194.25C282.22 203.63 267.71 204.24 261.36 201.85C255.45 199.62 253.98 195.42 251.5 190.25C247.02 190.58 242.53 190.92 238.04 191.25C236.6 199.56 243.71 208.41 250.52 212.25C263.51 219.59 284.81 219.01 293.77 205.54C295.17 203.44 295.77 201.1 296.33 198.65C300.24 181.54 286.11 174.57 271.75 173.05C266.72 172.52 256.57 172.75 255.21 166.13C254.04 160.4 260.97 158.3 265.25 157.97C273.47 157.33 278 160.66 281.25 167.81C285.75 167.43 290.25 167.06 294.75 166.68ZM422.75 185.9C424.67 173.78 421.39 158.86 411.02 151.23C393.69 138.47 366.29 143.67 358.16 164.88C351.85 181.35 356.58 204.07 372.85 212.89C384.8 219.37 402.27 218.56 412.53 209.28C414.96 207.08 417.92 204.42 418.92 201.25C414.7 199.09 410.47 196.94 406.25 194.78C402.93 197.64 401.01 200.44 396.53 201.74C385.33 205.01 371.39 198.68 371.2 185.9C388.39 185.9 405.57 185.9 422.75 185.9ZM476.99 144.08C471.59 143.68 466.15 144.49 461.38 147.15C458.88 148.54 456.71 151.34 454.1 152.1C454.1 150.01 454.1 147.93 454.1 145.84C446.86 145.84 439.61 145.84 432.37 145.84C432.37 150.57 432.37 155.3 432.37 160.03C434.6 160.03 436.83 160.03 439.07 160.03C439.07 178.39 439.07 196.75 439.07 215.12C444.03 215.12 449 215.12 453.96 215.12C455.35 200.11 448.16 168.54 464.52 160.29C468.42 158.32 472.82 158.94 476.99 158.33C476.99 153.58 476.99 148.83 476.99 144.08ZM535.1 151.85C532.15 150.5 529.77 147.59 526.61 146.18C520.71 143.55 513.44 143.61 507.26 145.01C471.79 153.03 476.06 214.35 512.75 216.9C518.1 217.27 523.78 216.45 528.49 213.73C530.89 212.34 532.68 209.65 535.09 208.65C535.09 210.8 535.09 212.96 535.09 215.11C540.13 215.11 545.17 215.11 550.21 215.11C550.21 192.03 550.21 168.95 550.21 145.87C545.18 145.87 540.14 145.87 535.1 145.87C535.1 147.86 535.1 149.86 535.1 151.85ZM406.91 171.66C395.28 171.66 383.64 171.66 372.01 171.66C374 154.57 406.26 154.64 406.91 171.66ZM515.89 158.73C540.69 157 542.09 201.54 517.75 202.4C492.5 203.29 491.66 160.42 515.89 158.73ZM623.73 200.17C604.24 200.17 584.76 200.17 565.27 200.17C565.27 205.17 565.27 210.16 565.27 215.16C584.76 215.16 604.24 215.16 623.73 215.16C623.73 210.16 623.73 205.17 623.73 200.17Z" fill="#ffffff" fill-rule="evenodd" stroke="#ffffff" stroke-width="0.25" stroke-linejoin="round"/>
<path d="M227.74 119.16C227.74 124.17 227.74 129.19 227.74 134.21C213.28 134.21 198.83 134.21 184.38 134.21C184.38 142.61 184.38 151.01 184.38 159.41C197.53 159.69 210.67 159.97 223.82 160.25C223.82 164.92 223.82 169.58 223.82 174.25C210.67 174.58 197.51 174.92 184.36 175.25C184.36 183.54 184.36 191.84 184.36 200.13C198.82 200.13 213.28 200.13 227.74 200.13C227.74 205.14 227.74 210.14 227.74 215.14C208.23 215.14 188.73 215.14 169.22 215.14C169.22 183.15 169.22 151.15 169.22 119.16C188.73 119.16 208.23 119.16 227.74 119.16ZM349.35 119.25C349.35 123.75 349.35 128.25 349.35 132.75C343.58 133.08 337.82 133.42 332.05 133.75C332.05 137.77 332.05 141.8 332.05 145.82C337.82 145.82 343.6 145.82 349.37 145.82C349.37 150.56 349.37 155.3 349.37 160.04C343.58 160.04 337.79 160.04 332 160.04C332 178.4 332 196.76 332 215.13C326.92 215.13 321.84 215.13 316.76 215.13C316.76 196.77 316.76 178.41 316.76 160.05C312.19 160.05 307.63 160.05 303.07 160.05C303.07 155.3 303.07 150.56 303.07 145.82C307.46 145.82 311.86 145.82 316.25 145.82C318.2 140.23 315.58 133.65 317.23 127.91C320.58 116.21 340.07 118.61 349.35 119.25ZM294.75 166.68C290.25 167.06 285.75 167.43 281.25 167.81C278 160.66 273.47 157.33 265.25 157.97C260.97 158.3 254.04 160.4 255.21 166.13C256.57 172.75 266.72 172.52 271.75 173.05C286.11 174.57 300.24 181.54 296.33 198.65C295.77 201.1 295.17 203.44 293.77 205.54C284.81 219.01 263.51 219.59 250.52 212.25C243.71 208.41 236.6 199.56 238.04 191.25C242.53 190.92 247.02 190.58 251.5 190.25C253.98 195.42 255.45 199.62 261.36 201.85C267.71 204.24 282.22 203.63 282.11 194.25C282.02 186.85 272.21 186.51 266.75 186.1C254.71 185.18 241.72 180.66 241.04 166.75C240.86 162.94 241.22 159.25 243.13 155.88C250.58 142.79 272.2 140.75 283.87 148.87C289.06 152.48 296.27 159.66 294.75 166.68ZM422.75 185.9C405.57 185.9 388.39 185.9 371.2 185.9C371.39 198.68 385.33 205.01 396.53 201.74C401.01 200.44 402.93 197.64 406.25 194.78C410.47 196.94 414.7 199.09 418.92 201.25C417.92 204.42 414.96 207.08 412.53 209.28C402.27 218.56 384.8 219.37 372.85 212.89C356.58 204.07 351.85 181.35 358.16 164.88C366.29 143.67 393.69 138.47 411.02 151.23C421.39 158.86 424.67 173.78 422.75 185.9ZM476.99 144.08C476.99 148.83 476.99 153.58 476.99 158.33C472.82 158.94 468.42 158.32 464.52 160.29C448.16 168.54 455.35 200.11 453.96 215.12C449 215.12 444.03 215.12 439.07 215.12C439.07 196.75 439.07 178.39 439.07 160.03C436.83 160.03 434.6 160.03 432.37 160.03C432.37 155.3 432.37 150.57 432.37 145.84C439.61 145.84 446.86 145.84 454.1 145.84C454.1 147.93 454.1 150.01 454.1 152.1C456.71 151.34 458.88 148.54 461.38 147.15C466.15 144.49 471.59 143.68 476.99 144.08ZM535.1 151.85C535.1 149.86 535.1 147.86 535.1 145.87C540.14 145.87 545.18 145.87 550.21 145.87C550.21 168.95 550.21 192.03 550.21 215.11C545.17 215.11 540.13 215.11 535.09 215.11C535.09 212.96 535.09 210.8 535.09 208.65C532.68 209.65 530.89 212.34 528.49 213.73C523.78 216.45 518.1 217.27 512.75 216.9C476.06 214.35 471.79 153.03 507.26 145.01C513.44 143.61 520.71 143.55 526.61 146.18C529.77 147.59 532.15 150.5 535.1 151.85ZM406.91 171.66C406.26 154.64 374 154.57 372.01 171.66C383.64 171.66 395.28 171.66 406.91 171.66ZM515.89 158.73C491.66 160.42 492.5 203.29 517.75 202.4C542.09 201.54 540.69 157 515.89 158.73Z" fill="#0c0d0b" fill-rule="evenodd" stroke="#0c0d0b" stroke-width="0.25" stroke-linejoin="round"/>
<path d="M623.73 200.17C623.73 205.17 623.73 210.16 623.73 215.16C604.24 215.16 584.76 215.16 565.27 215.16C565.27 210.16 565.27 205.17 565.27 200.17C584.76 200.17 604.24 200.17 623.73 200.17Z" fill="#d7252c" fill-rule="evenodd" stroke="#d7252c" stroke-width="0.25" stroke-linejoin="round"/>
</svg>