<?xml version="1.0" encoding="UTF-8"?>
<svg xmlns="http://www.w3.org/2000/svg" viewBox="0 0 796 385" width="796" height="385">
<path d="M0.13 0.13C265.38 0.13 530.63 0.13 795.88 0.13C795.88 128.38 795.88 256.63 795.88 384.88C530.63 384.88 265.38 384.88 0.13 384.88C0.13 256.63 0.13 128.38 0.13 0.13ZM306.61 158.16C304.61 158.92 302.61 159.68 300.62 160.45C294.31 156.16 283.94 154.52 276.73 151.54C273.61 150.25 269.16 147.5 265.75 148.4C264.73 149.82 264.88 151.02 265.01 152.75C265.13 154.29 265.14 155.85 266.12 157.14C268.56 160.33 279.68 162.85 283.75 164.41C283.99 164.99 284.24 165.58 284.48 166.16C282.49 166.81 280.49 167.46 278.5 168.12C274.36 167.63 270.02 164.08 265.85 164.75C264.55 166.76 264.4 171.41 265.45 173.5C266.91 175.39 269.34 175.53 271.47 176.27C273.65 177.03 275.86 178.66 278.25 178.62C283.12 178.53 294.61 172.04 300.5 170.91C302.91 171.69 305.31 172.47 307.72 173.25C307.44 173.68 307.16 174.11 306.88 174.55C297.5 178.09 288.13 181.64 278.75 185.19C278.85 188.38 278.94 191.56 279.04 194.75C281.54 194.84 284.26 193.12 286.66 192.35C294.16 189.93 301.4 186.67 308.88 184.18C312.38 183.02 318.11 182.08 320.95 179.69C323.45 177.59 323.23 171.09 321.8 168.57C320.18 167.63 318.55 166.69 316.93 165.75C316.97 165.46 317.01 165.18 317.05 164.89C321.53 162.88 322.49 161.86 322.54 156.75C322.55 155.14 323.04 153.39 321.58 152.44C320.79 149.8 314.44 148.64 311.92 147.8C304.29 145.27 296.62 142.55 289.12 139.67C286.17 138.54 282.46 136.25 279.25 136.3C277.57 138.94 277.74 144.21 280.43 146.31C284.92 149.82 300.49 153.84 306.75 156.53C306.7 157.07 306.66 157.61 306.61 158.16ZM344.25 136.37C342.45 136.37 340.65 136.37 338.85 136.37C338 139.74 337.58 153.38 339.03 156.25C341.44 157.05 352.85 157.37 355.13 156.38C356.57 155.75 357.24 153.6 357.48 152.25C353.33 151.92 349.17 151.58 345.02 151.25C344.76 146.29 344.51 141.33 344.25 136.37ZM386.29 156.25C386.16 151.56 381.57 145.95 379.57 141.69C378.82 140.1 377.88 137.37 376.25 136.48C374.64 135.6 371.41 136.24 369.75 136.67C366.58 143.12 363.42 149.57 360.25 156.02C363.99 158.21 366.19 155.91 368.05 152.97C371.62 152.97 375.18 152.97 378.75 152.97C380.82 155.96 382.19 157.71 386.29 156.25ZM410.83 136.75C405.87 134.99 398.61 136.24 393.34 136.25C390.94 136.26 388.2 135.83 385.97 136.75C385.97 137.87 385.97 139 385.97 140.12C389.06 140.58 392.16 141.03 395.25 141.48C395.51 146.5 395.77 151.52 396.03 156.54C397.65 156.54 399.27 156.54 400.89 156.54C401.18 151.53 401.46 146.51 401.75 141.5C404.78 140.94 407.8 140.37 410.83 139.81C410.83 138.79 410.83 137.77 410.83 136.75ZM436.47 156.25C436.53 152.56 431.15 144.17 429.21 140.56C428.37 138.99 427.86 136.79 425.94 136.28C418.15 134.22 416.51 143.74 413.78 149.05C412.71 151.11 410.45 153.89 410.78 156.25C416.05 158.93 415.95 154.32 418.41 153.21C419.54 152.7 421.04 152.92 422.25 152.92C424.11 152.92 426.9 152.41 428.64 153.12C432.03 154.51 430.39 158.36 436.47 156.25ZM457.25 146.09C452.2 143.12 457.88 136.06 448.25 136.19C447.15 136.2 446.3 136.34 445.25 136.64C443.3 138.95 439.73 153.63 440.25 156.61C441.75 156.61 443.25 156.61 444.75 156.61C446.25 152.1 447.75 147.59 449.25 143.07C454.16 147.98 449.01 154.42 460.04 152.75C461.61 149.43 463.18 146.11 464.75 142.78C466.08 147.36 467.42 151.93 468.75 156.5C470.45 156.5 472.14 156.5 473.84 156.5C474.17 151.83 471.81 146.48 470.78 141.89C470.43 140.32 470.04 137.66 468.52 136.73C466.84 135.68 463.02 136.02 461.25 136.54C459.92 139.72 458.58 142.9 457.25 146.09ZM373.25 142.02C374.97 143.43 376.1 146.08 375.95 148.25C374.09 148.79 371.9 148.98 370.37 147.75C371.33 145.84 372.29 143.93 373.25 142.02ZM423.75 142.25C425.34 143.8 426.34 146.34 426.29 148.5C424.45 148.5 422.6 148.5 420.75 148.5C420.7 146.15 421.86 143.68 423.75 142.25ZM496.62 176.75C494.03 174.69 489.18 174.23 485.92 173.77C475.19 172.24 458.5 172.12 453.04 183.77C451.75 186.51 451.36 189.98 452.31 192.92C455.76 203.62 470.45 203.9 479.47 205.76C483.67 206.62 490.35 208.37 490.12 213.75C489.92 218.34 484.52 220.19 480.72 220.84C469.55 222.73 462.76 219.64 452.75 216.51C451.13 218.14 449.93 221.77 450.25 224.04C453.2 226.59 458.01 227.44 461.74 228.08C473.08 230.04 497.08 230.9 498.66 214.75C500.11 199.82 482.42 198.03 471.69 196.16C467.38 195.4 458.6 193.42 460.82 187.1C463.6 179.18 480.95 180.71 487.22 182.14C489.51 182.66 491.88 184.25 494.25 183.65C495.04 181.35 495.83 179.05 496.62 176.75ZM549.28 176.75C546.69 174.56 542.11 174.36 538.89 173.79C527.3 171.76 499.75 174.18 505.06 192.72C508.17 203.59 523.14 203.77 532.04 205.73C535.94 206.59 542.99 208.11 542.97 213.25C542.95 218.08 537.61 220.2 533.6 220.78C527.2 221.68 520.67 221.22 514.39 219.8C511.4 219.12 508.14 216.83 505.25 216.74C504.47 219.08 503.7 221.41 502.92 223.75C505.86 226.52 510.87 227.49 514.74 228.11C526.27 229.98 554.5 230.34 551.51 211.25C549.61 199.15 534.92 198.2 525.39 196.3C521.37 195.5 514.01 194.71 513.25 189.54C512.61 185.14 517.69 182.58 521.24 181.88C527.41 180.67 533.52 180.75 539.67 182.16C542.04 182.71 544.34 183.81 546.75 183.91C547.59 181.52 548.43 179.14 549.28 176.75ZM346.97 210.14C351.19 209.67 355.87 211.77 360.25 211.89C375.41 212.31 392.96 206.49 389.82 187.81C387.02 171.17 363.25 173.89 351.25 173.93C347.01 173.94 342.66 173.57 338.47 174.25C338.47 192.2 338.47 210.16 338.47 228.11C341.3 228.11 344.14 228.11 346.97 228.11C346.97 222.12 346.97 216.13 346.97 210.14ZM447.25 227.77C447.22 223.86 442.84 219.1 441.23 215.55C437.41 207.15 432.47 199.18 428.31 190.93C426.13 186.61 422.99 178.36 419.53 175.21C417.52 173.38 413.52 173.62 411.08 174.25C401.87 192.08 392.66 209.92 383.45 227.75C384.79 228.46 386.22 228.24 387.75 228.23C388.86 228.23 390.67 228.59 391.69 228.01C394.38 226.48 397.46 216.98 399.75 214.02C410.17 214.02 420.59 214.02 431.02 214.02C435.54 220.64 436.35 231.96 447.25 227.77ZM347.01 182.2C349.73 181.72 352.49 181.88 355.25 181.88C363.47 181.88 381.94 179.44 381.69 192.25C381.41 206.58 355.68 205.54 347.01 200.75C347.01 194.57 347.01 188.38 347.01 182.2ZM415.25 184.13C416.8 185.35 417.48 187.57 418.43 189.32C420.58 193.25 426.31 201.93 426.25 206.04C418.9 206.04 411.56 206.04 404.21 206.04C404.22 201.98 409.8 193.57 411.87 189.64C412.8 187.88 413.6 185.2 415.25 184.13ZM300.48 194.25C298.47 193.88 296.67 194.83 294.76 195.51C290.65 196.97 281.76 199.05 278.75 201.8C278.19 204.35 277.75 209.08 279.22 211.25C281.55 211.23 284.03 209.71 286.25 208.98C289.44 207.94 298.13 205.73 300.13 203.38C301.25 202.07 301.11 200.36 301.11 198.75C301.12 197.09 301.27 195.71 300.48 194.25ZM287.79 215.25C285.09 214.77 280.91 216.9 278.55 218.25C278.55 221.42 278.55 224.58 278.55 227.75C285.54 227.73 291.62 222.62 287.79 215.25Z" fill="#131150" fill-rule="evenodd" stroke="#131150" stroke-width="0.25" stroke-linejoin="round"/>
<path d="M344.25 136.37C344.51 141.33 344.76 146.29 345.02 151.25C349.17 151.58 353.33 151.92 357.48 152.25C357.24 153.6 356.57 155.75 355.13 156.38C352.85 157.37 341.44 157.05 339.03 156.25C337.58 153.38 338 139.74 338.85 136.37C340.65 136.37 342.45 136.37 344.25 136.37ZM386.29 156.25C382.19 157.71 380.82 155.96 378.75 152.97C375.18 152.97 371.62 152.97 368.05 152.97C366.19 155.91 363.99 158.21 360.25 156.02C363.42 149.57 366.58 143.12 369.75 136.67C371.41 136.24 374.64 135.6 376.25 136.48C377.88 137.37 378.82 140.1 379.57 141.69C381.57 145.95 386.16 151.56 386.29 156.25ZM410.83 136.75C410.83 137.77 410.83 138.79 410.83 139.81C407.8 140.37 404.78 140.94 401.75 141.5C401.46 146.51 401.18 151.53 400.89 156.54C399.27 156.54 397.65 156.54 396.03 156.54C395.77 151.52 395.51 146.5 395.25 141.48C392.16 141.03 389.06 140.58 385.97 140.12C385.97 139 385.97 137.87 385.97 136.75C388.2 135.83 390.94 136.26 393.34 136.25C398.61 136.24 405.87 134.99 410.83 136.75ZM436.47 156.25C430.39 158.36 432.03 154.51 428.64 153.12C426.9 152.41 424.11 152.92 422.25 152.92C421.04 152.92 419.54 152.7 418.41 153.21C415.95 154.32 416.05 158.93 410.78 156.25C410.45 153.89 412.71 151.11 413.78 149.05C416.51 143.74 418.15 134.22 425.94 136.28C427.86 136.79 428.37 138.99 429.21 140.56C431.15 144.17 436.53 152.56 436.47 156.25ZM457.25 146.09C458.58 142.9 459.92 139.72 461.25 136.54C463.02 136.02 466.84 135.68 468.52 136.73C470.04 137.66 470.43 140.32 470.78 141.89C471.81 146.48 474.17 151.83 473.84 156.5C472.14 156.5 470.45 156.5 468.75 156.5C467.42 151.93 466.08 147.36 464.75 142.78C463.18 146.11 461.61 149.43 460.04 152.75C449.01 154.42 454.16 147.98 449.25 143.07C447.75 147.59 446.25 152.1 444.75 156.61C443.25 156.61 441.75 156.61 440.25 156.61C439.73 153.63 443.3 138.95 445.25 136.64C446.3 136.34 447.15 136.2 448.25 136.19C457.88 136.06 452.2 143.12 457.25 146.09ZM373.25 142.02C372.29 143.93 371.33 145.84 370.37 147.75C371.9 148.98 374.09 148.79 375.95 148.25C376.1 146.08 374.97 143.43 373.25 142.02ZM423.75 142.25C421.86 143.68 420.7 146.15 420.75 148.5C422.6 148.5 424.45 148.5 426.29 148.5C426.34 146.34 425.34 143.8 423.75 142.25ZM321.58 152.44C323.04 153.39 322.55 155.14 322.54 156.75C322.49 161.86 321.53 162.88 317.05 164.89C314.27 165.23 301.9 168.86 300.5 170.91C294.61 172.04 283.12 178.53 278.25 178.62C275.86 178.66 273.65 177.03 271.47 176.27C269.34 175.53 266.91 175.39 265.45 173.5C268.46 172.17 276.88 170.61 278.5 168.12C280.49 167.46 282.49 166.81 284.48 166.16C289.86 164.26 295.24 162.35 300.62 160.45C302.61 159.68 304.61 158.92 306.61 158.16C310.76 158.02 318.44 155.26 321.58 152.44ZM321.8 168.57C323.23 171.09 323.45 177.59 320.95 179.69C318.11 182.08 312.38 183.02 308.88 184.18C301.4 186.67 294.16 189.93 286.66 192.35C284.26 193.12 281.54 194.84 279.04 194.75C278.94 191.56 278.85 188.38 278.75 185.19C288.13 181.64 297.5 178.09 306.88 174.55C311.08 174.17 318.99 171.87 321.8 168.57ZM496.62 176.75C495.83 179.05 495.04 181.35 494.25 183.65C491.88 184.25 489.51 182.66 487.22 182.14C480.95 180.71 463.6 179.18 460.82 187.1C458.6 193.42 467.38 195.4 471.69 196.16C482.42 198.03 500.11 199.82 498.66 214.75C497.08 230.9 473.08 230.04 461.74 228.08C458.01 227.44 453.2 226.59 450.25 224.04C449.93 221.77 451.13 218.14 452.75 216.51C462.76 219.64 469.55 222.73 480.72 220.84C484.52 220.19 489.92 218.34 490.12 213.75C490.35 208.37 483.67 206.62 479.47 205.76C470.45 203.9 455.76 203.62 452.31 192.92C451.36 189.98 451.75 186.51 453.04 183.77C458.5 172.12 475.19 172.24 485.92 173.77C489.18 174.23 494.03 174.69 496.62 176.75ZM549.28 176.75C548.43 179.14 547.59 181.52 546.75 183.91C544.34 183.81 542.04 182.71 539.67 182.16C533.52 180.75 527.41 180.67 521.24 181.88C517.69 182.58 512.61 185.14 513.25 189.54C514.01 194.71 521.37 195.5 525.39 196.3C534.92 198.2 549.61 199.15 551.51 211.25C554.5 230.34 526.27 229.98 514.74 228.11C510.87 227.49 505.86 226.52 502.92 223.75C503.7 221.41 504.47 219.08 505.25 216.74C508.14 216.83 511.4 219.12 514.39 219.8C520.67 221.22 527.2 221.68 533.6 220.78C537.61 220.2 542.95 218.08 542.97 213.25C542.99 208.11 535.94 206.59 532.04 205.73C523.14 203.77 508.17 203.59 505.06 192.72C499.75 174.18 527.3 171.76 538.89 173.79C542.11 174.36 546.69 174.56 549.28 176.75ZM346.97 210.14C346.97 216.13 346.97 222.12 346.97 228.11C344.14 228.11 341.3 228.11 338.47 228.11C338.47 210.16 338.47 192.2 338.47 174.25C342.66 173.57 347.01 173.94 351.25 173.93C363.25 173.89 387.02 171.17 389.82 187.81C392.96 206.49 375.41 212.31 360.25 211.89C355.87 211.77 351.19 209.67 346.97 210.14ZM447.25 227.77C436.35 231.96 435.54 220.64 431.02 214.02C420.59 214.02 410.17 214.02 399.75 214.02C397.46 216.98 394.38 226.48 391.69 228.01C390.67 228.59 388.86 228.23 387.75 228.23C386.22 228.24 384.79 228.46 383.45 227.75C392.66 209.92 401.87 192.08 411.08 174.25C413.52 173.62 417.52 173.38 419.53 175.21C422.99 178.36 426.13 186.61 428.31 190.93C432.47 199.18 437.41 207.15 441.23 215.55C442.84 219.1 447.22 223.86 447.25 227.77ZM347.01 182.2C347.01 188.38 347.01 194.57 347.01 200.75C355.68 205.54 381.41 206.58 381.69 192.25C381.94 179.44 363.47 181.88 355.25 181.88C352.49 181.88 349.73 181.72 347.01 182.2ZM415.25 184.13C413.6 185.2 412.8 187.88 411.87 189.64C409.8 193.57 404.22 201.98 404.21 206.04C411.56 206.04 418.9 206.04 426.25 206.04C426.31 201.93 420.58 193.25 418.43 189.32C417.48 187.57 416.8 185.35 415.25 184.13ZM300.48 194.25C301.27 195.71 301.12 197.09 301.11 198.75C301.11 200.36 301.25 202.07 300.13 203.38C298.13 205.73 289.44 207.94 286.25 208.98C284.03 209.71 281.55 211.23 279.22 211.25C277.75 209.08 278.19 204.35 278.75 201.8C281.76 199.05 290.65 196.97 294.76 195.51C296.67 194.83 298.47 193.88 300.48 194.25ZM287.79 215.25C291.62 222.62 285.54 227.73 278.55 227.75C278.55 224.58 278.55 221.42 278.55 218.25C280.91 216.9 285.09 214.77 287.79 215.25Z" fill="#fafbfc" fill-rule="evenodd" stroke="#fafbfc" stroke-width="0.25" stroke-linejoin="round"/>
<path d="M321.58 152.44C318.44 155.26 310.76 158.02 306.61 158.16C306.66 157.61 306.7 157.07 306.75 156.53C300.49 153.84 284.92 149.82 280.43 146.31C277.74 144.21 277.57 138.94 279.25 136.3C282.46 136.25 286.17 138.54 289.12 139.67C296.62 142.55 304.29 145.27 311.92 147.8C314.44 148.64 320.79 149.8 321.58 152.44ZM300.62 160.45C295.24 162.35 289.86 164.26 284.48 166.16C284.24 165.58 283.99 164.99 283.75 164.41C279.68 162.85 268.56 160.33 266.12 157.14C265.14 155.85 265.13 154.29 265.01 152.75C264.88 151.02 264.73 149.82 265.75 148.4C269.16 147.5 273.61 150.25 276.73 151.54C283.94 154.52 294.31 156.16 300.62 160.45ZM278.5 168.12C276.88 170.61 268.46 172.17 265.45 173.5C264.4 171.41 264.55 166.76 265.85 164.75C270.02 164.08 274.36 167.63 278.5 168.12ZM317.05 164.89C317.01 165.18 316.97 165.46 316.93 165.75C318.55 166.69 320.18 167.63 321.8 168.57C318.99 171.87 311.08 174.17 306.88 174.55C307.16 174.11 307.44 173.68 307.72 173.25C305.31 172.47 302.91 171.69 300.5 170.91C301.9 168.86 314.27 165.23 317.05 164.89Z" fill="#de4958" fill-rule="evenodd" stroke="#de4958" stroke-width="0.25" stroke-linejoin="round"/>
</svg>