<?xml version="1.0" encoding="UTF-8"?>
<svg xmlns="http://www.w3.org/2000/svg" viewBox="0 0 1000 420" width="1000" height="420">
<path d="M360.84 135.23C360.84 176.98 360.84 218.74 360.84 260.49C368.08 259.49 375.33 258.49 382.58 257.49C382.58 265.5 382.58 273.5 382.58 281.5C378.57 283.34 374.02 283.59 369.69 284.36C356.68 286.67 343.48 289.88 335.29 276.23C329.93 267.31 332.17 248.02 332.17 237.5C332.17 216.17 332.17 194.83 332.17 173.5C332.17 162.68 330.93 150.96 332.5 140.27C341.95 138.59 351.39 136.91 360.84 135.23ZM710.84 135.39C710.84 177.06 710.84 218.72 710.84 260.39C718.15 259.43 725.47 258.46 732.78 257.5C732.78 265.5 732.78 273.5 732.78 281.5C728.94 283.21 724.7 283.47 720.57 284.23C707.2 286.67 693.76 290.05 685.23 276.28C679.94 267.74 682.17 247.72 682.17 237.5C682.17 216.17 682.17 194.83 682.17 173.5C682.17 162.68 680.93 150.96 682.5 140.27C691.95 138.65 701.39 137.02 710.84 135.39ZM407.66 136.24C425.29 131.61 433.41 156.46 417.25 162.73C398.58 169.98 389.82 140.93 407.66 136.24ZM214.81 138.46C217.78 138.05 220.58 138.29 223.5 138.92C237.67 141.98 241.88 154.34 245.71 166.71C246.91 170.55 247.47 175.17 250.07 178.38C253.69 182.85 261.17 183.6 266.34 185.25C276.66 188.53 285.9 192.71 289.85 203.6C291.04 206.9 291.71 210.69 291.5 214.2C290.59 229.35 279.36 235.61 266.34 239.75C260.83 241.5 253.27 242.13 249.6 247.11C247.45 250.03 246.81 253.95 245.76 257.34C242.52 267.87 239.47 280.15 228.04 284.52C225.28 285.57 222.45 286.05 219.5 286.16C216.08 286.28 212.56 286.25 209.25 285.34C196.85 281.91 192.67 270.46 189.33 259.24C188.08 255.02 187.38 249.53 184.33 246.16C181.27 242.78 175.89 241.98 171.75 240.67C161.41 237.42 149.55 234.49 145.28 223.26C143.97 219.82 143.49 216.16 143.49 212.5C143.49 195.19 153.97 189.9 168.6 185.16C174.32 183.31 181.18 182.73 185.08 177.6C188.16 173.54 188.86 167.55 190.34 162.77C194.22 150.21 200.9 140.37 214.81 138.46ZM549.8 172.3C549.8 180.46 549.8 188.63 549.8 196.8C547.2 197.91 543.14 197.65 540.92 199.41C539.08 200.86 538.25 204.71 537.38 206.82C534.93 212.71 532.5 218.62 530.04 224.51C524.44 237.92 518.78 251.3 513.28 264.75C510.94 270.47 509.11 277.48 505.5 282.51C497.5 283.69 489.5 284.87 481.5 286.05C466.74 250.53 451.98 215.02 437.23 179.5C445.98 178.05 454.74 176.59 463.5 175.14C473.17 200.54 482.83 225.95 492.5 251.36C495.93 247.29 497.34 240.8 499.27 235.73C503.75 223.9 508.26 212.09 512.72 200.26C515.78 192.11 517.96 183.19 525.61 178.04C532.04 173.71 542.25 172.62 549.8 172.3ZM669.5 231.04C640.92 236.19 612.35 241.35 583.77 246.5C589.82 265.71 614.23 271.56 631.06 262.55C634.25 260.84 637.06 258.63 639.23 255.73C640.89 253.54 641.99 250.24 644.64 249.12C650.14 246.81 663.12 245.57 669.5 244.6C669.55 250.17 666.36 256.22 663.53 261.04C652.91 279.18 632.85 286.98 612.5 286.96C575.05 286.94 549.62 256.59 555.31 219.56C560.23 187.5 589.92 168.06 621.47 172.21C644.98 175.3 662.87 192.65 668.29 215.35C669.47 220.29 670.44 226.09 669.5 231.04ZM786.81 172.42C810.6 168.75 836.17 178.73 848.84 199.67C869.47 233.76 848.22 278.98 809.44 285.73C798.02 287.72 785.93 287.15 774.88 283.56C740.25 272.3 725.78 229.87 744.58 199.08C753.95 183.72 769.31 175.12 786.81 172.42ZM425.82 174.93C425.82 210.45 425.82 245.98 425.82 281.51C416.55 283.17 407.29 284.84 398.02 286.5C398.02 250.83 398.02 215.16 398.02 179.49C407.29 177.97 416.55 176.45 425.82 174.93ZM642.5 215.25C640.37 194.98 615.74 186.51 598.87 194.41C587.46 199.75 581.37 213.38 582.13 225.5C602.25 222.08 622.38 218.67 642.5 215.25ZM790.57 195.25C765.01 198.9 755.57 231.84 770.08 251.35C778.16 262.23 792.57 265.71 805.34 262.73C828.93 257.22 836.46 226.06 822.85 207.68C815.36 197.58 802.77 193.5 790.57 195.25Z" fill="#ff0a8c" fill-rule="evenodd" stroke="#ff0a8c" stroke-width="0.25" stroke-linejoin="round"/>
</svg>