<?xml version="1.0" encoding="UTF-8"?>
<svg xmlns="http://www.w3.org/2000/svg" viewBox="0 0 512 512" width="512" height="512">
<path d="M103.32 281.25C106.48 284.56 115.16 287.38 119.6 289.21C132.47 294.51 145.27 299.25 158.62 303.19C217.05 320.43 279.09 320.25 338.29 307.14C356.13 303.19 373.62 297.37 390.33 290.11C393.97 288.53 405.66 284.68 407.52 281.75C405.4 280.15 402.47 279.74 400.34 277.91C395.75 273.98 395.12 265.57 402.76 265.15C405.73 264.99 408.63 266.99 411.37 267.81C418.34 269.9 433.43 270.14 433.91 259.75C434.25 252.53 425.37 248.44 420.01 245.71C409.59 240.4 398.54 234.56 396.76 221.95C396.12 217.42 396.73 212.68 398.85 208.63C400.78 204.97 403.31 202.29 406.59 199.81C410.36 196.96 415.26 195.16 419.85 194.18C426.89 192.67 436.25 191.98 443.04 194.69C446.84 196.21 450.05 199.73 448.86 204.18C448.09 207.07 445.12 208.99 442.25 209.03C439.59 209.07 437.14 207.84 434.61 207.21C427.28 205.39 413.96 207.94 416.27 218.49C418.47 228.52 432.97 232.35 440.5 237.26C444.63 239.95 448.86 243.78 450.78 248.42C451.62 250.45 451.7 252.92 452.67 254.75C459.09 251.9 466.37 244.2 471.78 239.54C474.11 237.53 476.75 233.49 479.75 232.93C481.77 234.66 481.04 238.27 481.04 240.75C481.04 250.08 476.38 255.56 469.95 261.68C448.6 281.98 423.15 298.16 396.95 311.24C338.6 340.37 271.55 351.06 206.77 340.88C177.38 336.27 149.46 326.71 122.37 314.84C95.69 303.16 64.62 283.54 43.59 263.18C36.69 256.51 30.96 250.98 30.96 240.75C30.96 238.22 30.29 234.79 32.25 232.94C35.19 233.41 42.28 241.34 45.02 243.72C58.76 255.62 83.66 278.21 101.97 263.71C108.48 258.55 108.75 248.51 103.27 242.49C91.36 229.39 69.66 226.89 62.2 209.11C60.24 204.44 59.87 199.45 60.75 194.52C65.2 169.35 97.5 162.94 118.65 169.16C125.66 171.22 131.54 181.48 122.14 184.85C117.91 186.36 113.16 184.02 109.05 183.24C98.75 181.29 82.79 184.27 83.04 197.75C83.21 207.23 94.43 212.28 101.47 216.29C118.55 226.01 136.91 237.95 128.24 260.94C126.39 265.85 123.52 270.3 119.31 273.55C114.42 277.34 109.28 279.62 103.32 281.25ZM261.82 168.13C275.14 164.2 281.59 184.66 268.63 188.83C254.89 193.26 248.32 172.11 261.82 168.13ZM291.8 168.12C306.14 164.62 305.52 176.01 305.52 185.75C305.52 206.08 305.52 226.42 305.52 246.75C305.52 252.8 304.19 261.95 308.27 266.99C312.67 272.43 321.21 263.58 324.69 270.55C328 277.17 318.83 281.89 313.73 282.9C302.17 285.21 289.77 280.66 286.16 268.65C284.35 262.61 284.96 255.99 284.96 249.75C284.96 239.25 284.96 228.75 284.96 218.25C284.96 212.42 284.96 206.58 284.96 200.75C284.96 194.53 283.7 179.13 285.25 173.96C286.14 171.01 288.85 168.85 291.8 168.12ZM197.75 207.29C199.61 206.74 203.88 200.17 206.09 198.36C213.74 192.09 225.48 191.24 233.63 197.14C249.34 208.52 245.04 241.48 245.04 258.75C245.04 265.22 247.77 277.42 240.64 280.87C235.4 283.4 224.95 282.81 223.61 275.67C222.71 270.83 223.48 265.18 223.48 260.25C223.48 248.45 223.93 236.54 223.48 224.75C223.23 218.41 222.06 208.68 213.75 208.92C206.7 209.13 203.01 216.13 201.85 222.22C199.4 235.17 201.04 250.91 201.04 264.25C201.04 269.88 202.8 277.89 196.64 280.87C191.88 283.17 182.49 283.05 180.08 277.2C178.24 272.75 179.48 266 179.48 261.25C179.48 249.25 179.61 237.25 179.48 225.25C179.41 219.13 178.34 208.94 170.25 208.91C162.99 208.88 159.13 215.99 157.87 222.22C155.38 234.51 157.04 252.76 157.04 265.75C157.04 269.01 157.67 273.02 156.87 276.19C155.48 281.72 147.62 283.26 142.9 281.79C134.71 279.23 136.83 270.04 136.83 263.25C136.83 248.92 136.83 234.58 136.83 220.25C136.83 215.11 135.55 205.45 137.13 200.83C139.77 193.15 153.98 193.79 157.25 202.82C160.74 200.81 163.01 197.01 166.93 195.22C174.9 191.58 185.42 192.72 191.81 198.94C194.37 201.43 195.49 204.77 197.75 207.29ZM345.25 249.16C344.89 251.22 345.96 253.06 346.78 254.93C350.74 263.92 358.24 269.22 368.25 268.95C372.61 268.83 377.51 266.28 381.74 267.03C386.15 267.82 387.06 273.37 384.77 276.54C380.79 282.06 371.88 282.57 365.84 283.22C343.81 285.57 329.07 271.51 323.24 251.55C321.23 244.66 321.41 236.57 322.79 229.61C327.11 207.82 342.71 191.7 366.31 193.79C373.06 194.39 379.06 195.93 384.42 200.32C400.27 213.3 389.39 235.36 374.11 242.82C364.77 247.38 355.24 247.33 345.25 249.16ZM264.33 195.66C268.22 195.39 273.71 197 274.88 201.31C276.5 207.27 275.17 219.63 275.17 226.25C275.17 237.42 275.17 248.58 275.17 259.75C275.17 264.92 276.12 271.18 274.93 276.23C273.89 280.62 268.66 282.17 264.75 282.16C253.46 282.14 254.83 273.65 254.83 265.25C254.83 248.08 254.83 230.92 254.83 213.75C254.83 205.05 252.9 196.47 264.33 195.66ZM344.25 237.31C352.3 237.94 362.57 233.86 367.63 227.38C372.09 221.66 372.89 211.88 366.7 207.02C362.04 203.36 356.15 206.07 352.3 209.54C345.25 215.88 342.64 228.21 344.25 237.31Z" fill="#ff8000" fill-rule="evenodd" stroke="#ff8000" stroke-width="0.25" stroke-linejoin="round"/>
</svg>