<?xml version="1.0" encoding="UTF-8"?>
<svg xmlns="http://www.w3.org/2000/svg" viewBox="0 0 700 440" width="700" height="440">
<path d="M0.13 0.13C233.38 0.13 466.63 0.13 699.88 0.13C699.88 146.71 699.88 293.29 699.88 439.88C466.63 439.88 233.38 439.88 0.13 439.88C0.13 293.29 0.13 146.71 0.13 0.13ZM165.5 164.27C166.46 164.21 167.5 164.12 168.36 163.62C169.68 162.86 179.79 153.56 180.25 152.54C180.71 151.54 180.49 150.73 180.36 149.75C178.74 149.71 177.12 149.68 175.5 149.64C164.88 149.93 164.96 150.08 158.01 157.76C156.69 159.22 153.68 161.22 153.8 163.25C156.49 165.39 162.14 164.28 165.5 164.27ZM201.8 255.75C201.56 250.26 198.84 244.38 197.02 239.23C194.65 232.5 192.9 225.52 190.38 218.84C187.31 210.74 183.81 202.7 180.6 194.67C178.3 188.91 176.25 182.99 173.23 177.54C172.48 176.2 172.45 174.03 171.22 173.02C169.32 171.45 156.71 171.89 154.25 172.71C150.61 176.77 147.45 187.92 145.03 193.25C138.87 206.82 134.04 220.86 129.21 234.93C127.39 240.23 122.92 250.6 122.64 255.75C125.2 257.84 136.62 257.46 139.47 255.75C140.98 252 142.36 239.58 144.32 237.06C146.08 234.79 150.81 235.72 153.25 235.73C160.95 235.76 171.99 234.26 179.26 236.25C182.21 240.48 182.28 254.04 185.88 256.37C188.03 257.75 192.28 256.92 194.75 256.92C197.08 256.92 200.03 257.51 201.8 255.75ZM240.5 245.88C237.65 245.19 233.59 244.72 231.47 242.29C226.89 237.05 228.69 223.86 228.69 217.25C228.69 214.17 228.28 210.76 228.96 207.75C230.14 207.27 231.32 206.8 232.5 206.32C236.92 206.08 241.33 205.84 245.75 205.6C246.92 202.59 247.08 197.3 246.07 194.25C241.28 191.22 234.1 195.49 229.34 192.25C227.86 188.03 230.59 182.07 228.17 178.25C226.49 177.43 215.8 180.17 214.32 181.25C214.09 184.92 213.87 188.58 213.64 192.25C209.76 192.92 205.87 193.58 201.99 194.25C201 197.24 200.97 202.99 202.56 205.75C206.15 206.25 209.73 206.75 213.32 207.25C214.91 210.55 213.89 216.08 213.89 219.75C213.89 229.34 211.39 242.71 218.22 250.53C220.22 252.82 222.49 253.7 224.93 255.29C227.8 257.16 230.86 257.22 234.25 257.36C237.67 257.5 243.05 258.29 245.98 256.25C247.07 253.56 246.89 248.48 245.75 245.79C244 245.82 242.25 245.85 240.5 245.88ZM163.24 189.75C166.18 193.93 170.82 208.19 172.26 213.5C173.03 216.34 175.18 218.7 174.72 221.75C171.75 223.99 159.43 222.89 155.25 222.84C153.12 222.81 150.88 223.02 149.25 221.51C149.38 218.03 156.4 200.41 158.28 196.54C159.55 193.93 159.64 189.8 163.24 189.75ZM387.1 203.51C381.84 199.83 380.26 192.92 372.5 193C366.42 191.95 360.67 193.28 355.58 196.33C353.01 197.87 351.08 201 348.25 201.9C347.62 199.35 346.99 196.8 346.35 194.25C343.27 192.49 336.07 192.66 332.94 194.25C331.23 198.15 332.33 207.22 332.33 211.75C332.33 221.25 332.36 230.75 332.33 240.25C332.31 245.24 331.61 250.89 332.64 255.75C335.74 257.77 343.86 257.85 347.13 256.25C348.65 253.43 347.73 248.46 347.73 245.25C347.73 239.4 346.56 220.51 347.83 216.14C348.73 213.03 353.91 208.31 356.82 207.08C359.13 206.1 362.31 206.2 364.75 206.4C371 206.92 373.13 213.85 373.32 219.25C373.63 227.89 373.33 236.6 373.33 245.25C373.33 248.49 372.42 253.4 373.95 256.25C377.09 257.96 385.61 257.69 388.64 255.75C390.1 248.14 388.9 232.18 388.81 223.75C388.74 216.78 389 212.65 394.97 208.72C397.61 206.98 399.45 206.3 402.75 206.31C412.55 206.32 413.38 213.09 413.36 221.25C413.33 232.5 412.17 244.6 413.57 255.75C416.37 258.18 425.69 257.65 428.75 255.76C429.92 248.96 428.92 241.16 428.92 234.25C428.92 224.05 430.87 211.81 426.41 202.34C422.52 194.09 415.58 192.69 407.25 192.92C404.92 192.98 402.27 192.93 400.06 193.8C395.69 195.53 391.4 199.37 388.79 203.25C388.23 203.34 387.66 203.42 387.1 203.51ZM534.01 245.42C530.51 243.93 527 242.44 523.5 240.95C520.06 240.98 516.39 244.74 514.19 247.25C514.47 250.95 518.98 253.49 522.15 254.63C523.47 255.1 524.45 256.1 525.76 256.53C530.51 258.08 542.19 258.13 547 257.01C550.01 257.19 551.69 256.27 554.26 255.01C563.69 250.38 568.62 241.62 564.28 230.95C562.15 225.73 557.03 223.78 552.32 221.93C549.98 221.02 548.66 219.82 546 219.98C545.85 219.94 545.71 219.91 545.56 219.88C542.95 219.26 535.44 217.9 533.4 216.34C525.49 210.26 533.65 205.72 539.44 204.12C543.91 203.99 547.31 204.92 551.19 207.06C552.59 207.84 553.32 208.69 555 208.92C557.63 206.86 560.26 204.81 562.9 202.75C561.99 195.9 551.49 192.31 545.5 192.98C533.92 191.36 519.64 194.25 516.15 206.83C515.58 208.89 514.88 210.84 515.25 213.02C516.88 222.66 521.4 225.4 529.87 228.36C531.48 228.92 532.79 229.91 534.5 230.24C539.68 231.24 547.39 231.34 549.98 236.8C553.79 244.85 538.49 246.37 534.01 245.42ZM278.79 193.22C275.75 193.43 274.16 194.73 271.47 195.72C255.14 201.72 249.6 221.4 254.75 237.01C257.55 245.48 264.75 251.38 272.46 254.79C273.76 255.37 274.66 256.37 276.09 256.71C280.34 257.73 285.42 257.54 289.75 257.4C292.9 257.3 296.68 257.44 299.67 256.39C324.13 247.83 328.71 216.21 309.92 199.34C301.62 191.89 289.18 192.49 278.79 193.22ZM465.9 193.24C462.91 193.48 461.39 194.41 458.75 195.5C441.54 202.58 435.1 223.5 443.01 240.23C446.38 247.36 454.89 254.21 462.26 256.54C465.71 257.64 470.17 257.42 473.75 257.4C477.8 257.38 483.23 257.87 487.03 256.25C503.42 249.28 512.36 232.34 506.86 214.84C505.41 210.21 503.48 205.8 500.06 202.19C491.1 192.75 478.19 192.22 465.9 193.24ZM284 206.38C287.6 206.23 292.62 205.64 295.96 207.31C309.88 214.26 308.71 235.34 296.15 242.92C293.86 244.3 290.06 243.88 287.5 244.03C282.5 243.3 278.4 243.52 274.51 239.74C265.4 230.87 266.57 212.77 278.97 207.25C280.47 206.59 282.4 206.69 284 206.38ZM467.79 206.69C476.06 205.56 483.93 206.07 489.57 212.68C496.61 220.94 492.7 238.64 482.75 243.03C473.51 247.12 459.27 242.7 456.28 232.46C453.65 223.49 456.73 208.21 467.79 206.69Z" fill="#ffffff" fill-rule="evenodd" stroke="#ffffff" stroke-width="0.25" stroke-linejoin="round"/>
<path d="M175.5 149.64C175.45 152.83 175.07 154.47 171.75 155.28C169.58 157.75 167.42 160.22 165.25 162.69C165.33 163.22 165.42 163.75 165.5 164.27C162.14 164.28 156.49 165.39 153.8 163.25C153.68 161.22 156.69 159.22 158.01 157.76C164.96 150.08 164.88 149.93 175.5 149.64ZM201.8 255.75C200.03 257.51 197.08 256.92 194.75 256.92C192.28 256.92 188.03 257.75 185.88 256.37C182.28 254.04 182.21 240.48 179.26 236.25C171.99 234.26 160.95 235.76 153.25 235.73C150.81 235.72 146.08 234.79 144.32 237.06C142.36 239.58 140.98 252 139.47 255.75C136.62 257.46 125.2 257.84 122.64 255.75C122.92 250.6 127.39 240.23 129.21 234.93C134.04 220.86 138.87 206.82 145.03 193.25C147.45 187.92 150.61 176.77 154.25 172.71C156.71 171.89 169.32 171.45 171.22 173.02C172.45 174.03 172.48 176.2 173.23 177.54C176.25 182.99 178.3 188.91 180.6 194.67C183.81 202.7 187.31 210.74 190.38 218.84C192.9 225.52 194.65 232.5 197.02 239.23C198.84 244.38 201.56 250.26 201.8 255.75ZM232.5 206.32C231.64 205 231.89 204.67 232.25 203.34C230.92 203.51 229.58 203.67 228.25 203.84C225.23 208.13 226.5 214.73 226.5 219.75C226.5 224.74 225.35 236.83 226.76 241.01C227.04 241.83 227.94 242.18 228.5 242.75C231.87 246.21 234.7 247.82 239.75 247.62C240 247.04 240.25 246.46 240.5 245.88C242.25 245.85 244 245.82 245.75 245.79C246.89 248.48 247.07 253.56 245.98 256.25C243.05 258.29 237.67 257.5 234.25 257.36C230.86 257.22 227.8 257.16 224.93 255.29C222.49 253.7 220.22 252.82 218.22 250.53C211.39 242.71 213.89 229.34 213.89 219.75C213.89 216.08 214.91 210.55 213.32 207.25C209.73 206.75 206.15 206.25 202.56 205.75C200.97 202.99 201 197.24 201.99 194.25C205.87 193.58 209.76 192.92 213.64 192.25C213.87 188.58 214.09 184.92 214.32 181.25C215.8 180.17 226.49 177.43 228.17 178.25C230.59 182.07 227.86 188.03 229.34 192.25C234.1 195.49 241.28 191.22 246.07 194.25C247.08 197.3 246.92 202.59 245.75 205.6C241.33 205.84 236.92 206.08 232.5 206.32ZM163.24 189.75C159.64 189.8 159.55 193.93 158.28 196.54C156.4 200.41 149.38 218.03 149.25 221.51C150.88 223.02 153.12 222.81 155.25 222.84C159.43 222.89 171.75 223.99 174.72 221.75C175.18 218.7 173.03 216.34 172.26 213.5C170.82 208.19 166.18 193.93 163.24 189.75ZM372.5 193C375.65 195.7 379.56 199.06 382.3 202.44C383.53 203.95 383.55 207.2 386.25 206.53C386.53 205.52 386.82 204.52 387.1 203.51C387.66 203.42 388.23 203.34 388.79 203.25C391.4 199.37 395.69 195.53 400.06 193.8C402.27 192.93 404.92 192.98 407.25 192.92C415.58 192.69 422.52 194.09 426.41 202.34C430.87 211.81 428.92 224.05 428.92 234.25C428.92 241.16 429.92 248.96 428.75 255.76C425.69 257.65 416.37 258.18 413.57 255.75C412.17 244.6 413.33 232.5 413.36 221.25C413.38 213.09 412.55 206.32 402.75 206.31C399.45 206.3 397.61 206.98 394.97 208.72C389 212.65 388.74 216.78 388.81 223.75C388.9 232.18 390.1 248.14 388.64 255.75C385.61 257.69 377.09 257.96 373.95 256.25C372.42 253.4 373.33 248.49 373.33 245.25C373.33 236.6 373.63 227.89 373.32 219.25C373.13 213.85 371 206.92 364.75 206.4C362.31 206.2 359.13 206.1 356.82 207.08C353.91 208.31 348.73 213.03 347.83 216.14C346.56 220.51 347.73 239.4 347.73 245.25C347.73 248.46 348.65 253.43 347.13 256.25C343.86 257.85 335.74 257.77 332.64 255.75C331.61 250.89 332.31 245.24 332.33 240.25C332.36 230.75 332.33 221.25 332.33 211.75C332.33 207.22 331.23 198.15 332.94 194.25C336.07 192.66 343.27 192.49 346.35 194.25C346.99 196.8 347.62 199.35 348.25 201.9C351.08 201 353.01 197.87 355.58 196.33C360.67 193.28 366.42 191.95 372.5 193ZM545.5 192.98C548.3 194.81 558.2 198.8 559.4 201.75C557.52 204.74 555 205 555 208.92C553.32 208.69 552.59 207.84 551.19 207.06C547.31 204.92 543.91 203.99 539.44 204.12C539.04 203.6 538.65 203.08 538.25 202.56C536.64 202.61 534.78 202.33 533.29 203.04C528.94 205.12 525.24 212 528.82 216.46C529.5 217.31 538.04 220.95 539.25 221.13C540.59 219.46 543.07 220.11 545.56 219.88C545.71 219.91 545.85 219.94 546 219.98C546.5 220.4 547 220.83 547.5 221.25C544.3 223.29 552.87 224 553.78 224.45C557.98 226.54 561 230.94 562.51 235.27C563.25 237.39 563.38 241.1 562.29 243.11C561.9 243.82 561.07 244.17 560.74 244.93C560.41 245.7 560.58 246.68 560.1 247.38C559.32 248.53 557.63 249.39 556.65 250.4C556.06 251.01 555.86 251.91 555.15 252.41C553.82 253.35 551.79 252.8 550.29 253.54C548.6 254.37 548.15 255.96 547 257.01C542.19 258.13 530.51 258.08 525.76 256.53C524.45 256.1 523.47 255.1 522.15 254.63C518.98 253.49 514.47 250.95 514.19 247.25C516.39 244.74 520.06 240.98 523.5 240.95C523.07 246.41 525.12 244.07 528.62 245.69C529.99 246.32 529.99 247.2 531.75 247.28C531.17 246.77 530.58 246.26 530 245.75C531.34 245.64 532.68 245.53 534.01 245.42C538.49 246.37 553.79 244.85 549.98 236.8C547.39 231.34 539.68 231.24 534.5 230.24C532.79 229.91 531.48 228.92 529.87 228.36C521.4 225.4 516.88 222.66 515.25 213.02C514.88 210.84 515.58 208.89 516.15 206.83C519.64 194.25 533.92 191.36 545.5 192.98ZM278.79 193.22C289.18 192.49 301.62 191.89 309.92 199.34C328.71 216.21 324.13 247.83 299.67 256.39C296.68 257.44 292.9 257.3 289.75 257.4C285.42 257.54 280.34 257.73 276.09 256.71C274.66 256.37 273.76 255.37 272.46 254.79C264.75 251.38 257.55 245.48 254.75 237.01C249.6 221.4 255.14 201.72 271.47 195.72C274.16 194.73 275.75 193.43 278.79 193.22ZM465.9 193.24C478.19 192.22 491.1 192.75 500.06 202.19C503.48 205.8 505.41 210.21 506.86 214.84C512.36 232.34 503.42 249.28 487.03 256.25C483.23 257.87 477.8 257.38 473.75 257.4C470.17 257.42 465.71 257.64 462.26 256.54C454.89 254.21 446.38 247.36 443.01 240.23C435.1 223.5 441.54 202.58 458.75 195.5C461.39 194.41 462.91 193.48 465.9 193.24ZM287.5 244.03C290.06 243.88 293.86 244.3 296.15 242.92C308.71 235.34 309.88 214.26 295.96 207.31C292.62 205.64 287.6 206.23 284 206.38C283.33 206.17 282.67 205.96 282 205.75C282.67 205.25 283.33 204.75 284 204.25C279.79 204.1 275.54 206.37 271.84 208.25C270.72 210.93 267.78 213.09 266.94 215.76C266.06 218.58 266.35 221.84 266.3 224.75C266.26 227.64 265.45 232.63 266.99 235.23C267.39 235.91 268.09 236.05 268.57 236.66C274.79 244.59 276.59 245.44 286.75 246.96C286.42 246.47 286.08 245.99 285.75 245.5C286.33 245.01 286.92 244.52 287.5 244.03ZM467.79 206.69C456.73 208.21 453.65 223.49 456.28 232.46C459.27 242.7 473.51 247.12 482.75 243.03C492.7 238.64 496.61 220.94 489.57 212.68C483.93 206.07 476.06 205.56 467.79 206.69Z" fill="#262424" fill-rule="evenodd" stroke="#262424" stroke-width="0.25" stroke-linejoin="round"/>
<path d="M175.5 149.64C177.12 149.68 178.74 149.71 180.36 149.75C180.49 150.73 180.71 151.54 180.25 152.54C179.79 153.56 169.68 162.86 168.36 163.62C167.5 164.12 166.46 164.21 165.5 164.27C165.42 163.75 165.33 163.22 165.25 162.69C167.42 160.22 169.58 157.75 171.75 155.28C175.07 154.47 175.45 152.83 175.5 149.64ZM372.5 193C380.26 192.92 381.84 199.83 387.1 203.51C386.82 204.52 386.53 205.52 386.25 206.53C383.55 207.2 383.53 203.95 382.3 202.44C379.56 199.06 375.65 195.7 372.5 193ZM545.5 192.98C551.49 192.31 561.99 195.9 562.9 202.75C560.26 204.81 557.63 206.86 555 208.92C555 205 557.52 204.74 559.4 201.75C558.2 198.8 548.3 194.81 545.5 192.98ZM539.44 204.12C533.65 205.72 525.49 210.26 533.4 216.34C535.44 217.9 542.95 219.26 545.56 219.88C543.07 220.11 540.59 219.46 539.25 221.13C538.04 220.95 529.5 217.31 528.82 216.46C525.24 212 528.94 205.12 533.29 203.04C534.78 202.33 536.64 202.61 538.25 202.56C538.65 203.08 539.04 203.6 539.44 204.12ZM232.5 206.32C231.32 206.8 230.14 207.27 228.96 207.75C228.28 210.76 228.69 214.17 228.69 217.25C228.69 223.86 226.89 237.05 231.47 242.29C233.59 244.72 237.65 245.19 240.5 245.88C240.25 246.46 240 247.04 239.75 247.62C234.7 247.82 231.87 246.21 228.5 242.75C227.94 242.18 227.04 241.83 226.76 241.01C225.35 236.83 226.5 224.74 226.5 219.75C226.5 214.73 225.23 208.13 228.25 203.84C229.58 203.67 230.92 203.51 232.25 203.34C231.89 204.67 231.64 205 232.5 206.32ZM284 206.38C282.4 206.69 280.47 206.59 278.97 207.25C266.57 212.77 265.4 230.87 274.51 239.74C278.4 243.52 282.5 243.3 287.5 244.03C286.92 244.52 286.33 245.01 285.75 245.5C286.08 245.99 286.42 246.47 286.75 246.96C276.59 245.44 274.79 244.59 268.57 236.66C268.09 236.05 267.39 235.91 266.99 235.23C265.45 232.63 266.26 227.64 266.3 224.75C266.35 221.84 266.06 218.58 266.94 215.76C267.78 213.09 270.72 210.93 271.84 208.25C275.54 206.37 279.79 204.1 284 204.25C283.33 204.75 282.67 205.25 282 205.75C282.67 205.96 283.33 206.17 284 206.38ZM546 219.98C548.66 219.82 549.98 221.02 552.32 221.93C557.03 223.78 562.15 225.73 564.28 230.95C568.62 241.62 563.69 250.38 554.26 255.01C551.69 256.27 550.01 257.19 547 257.01C548.15 255.96 548.6 254.37 550.29 253.54C551.79 252.8 553.82 253.35 555.15 252.41C555.86 251.91 556.06 251.01 556.65 250.4C557.63 249.39 559.32 248.53 560.1 247.38C560.58 246.68 560.41 245.7 560.74 244.93C561.07 244.17 561.9 243.82 562.29 243.11C563.38 241.1 563.25 237.39 562.51 235.27C561 230.94 557.98 226.54 553.78 224.45C552.87 224 544.3 223.29 547.5 221.25C547 220.83 546.5 220.4 546 219.98ZM523.5 240.95C527 242.44 530.51 243.93 534.01 245.42C532.68 245.53 531.34 245.64 530 245.75C530.58 246.26 531.17 246.77 531.75 247.28C529.99 247.2 529.99 246.32 528.62 245.69C525.12 244.07 523.07 246.41 523.5 240.95Z" fill="#283648" fill-rule="evenodd" stroke="#283648" stroke-width="0.25" stroke-linejoin="round"/>
</svg>