<?xml version="1.0" encoding="UTF-8"?>
<svg xmlns="http://www.w3.org/2000/svg" viewBox="0 0 1000 781" width="1000" height="781">
<path d="M200.5 19.16C189.45 49.61 178.39 80.05 167.34 110.5C186.37 112.82 205.49 114.3 224.48 117.13C230.47 118.03 244.22 121.77 249.44 119.92C255.23 117.87 267.47 103.8 272.4 98.9C274.35 96.94 277.02 92.98 279.63 92.02C282.07 91.13 285.5 91.7 288.06 91.7C288.06 120.97 288.06 150.23 288.06 179.5C285.58 179.87 282.23 180.48 279.77 179.64C277.37 178.82 274.89 175.15 273.12 173.38C268.11 168.38 263.01 163.5 258.01 158.49C255.51 156 252.78 152.33 249.23 151.35C243.3 149.72 232.75 153.07 226.5 153.96C213.87 155.75 201.2 157.57 188.5 158.88C181.46 159.6 173.8 159.49 167.06 161.5C178.13 191.5 189.19 221.5 200.26 251.5C193.27 252.38 184.87 249.79 177.85 248.57C175.64 248.19 172.52 248.3 170.64 246.96C168.49 245.44 166.98 242.18 165.46 240.06C161.3 234.24 157.09 228.45 152.92 222.64C143.18 209.03 133.35 195.48 123.57 181.9C118.58 174.97 113.89 167.68 108.5 161.06C86.98 159.93 64.19 159.14 43.69 151.78C36.16 149.08 25.05 144.2 25.98 134.5C26.68 127.14 35.2 123.01 41.21 120.64C57.09 114.38 74.64 112.72 91.5 111.25C95.85 110.87 105.59 111.93 109 109.55C111.86 107.54 119.42 95.16 122.02 91.56C133.53 75.69 144.85 59.69 156.34 43.82C159.7 39.18 163.03 34.51 166.37 29.86C167.6 28.15 168.9 25.28 170.7 24.16C172.78 22.87 176.08 23.01 178.41 22.63C185.73 21.42 193.12 19.67 200.5 19.16ZM461.83 426.5C504.06 468.28 546.28 510.05 588.5 551.83C599.94 541.04 610.83 529.59 621.98 518.48C643.34 497.18 664.74 475.91 686.1 454.6C737.18 403.68 788.6 353.11 839.59 302.09C846.09 295.59 852.58 289.08 859.08 282.58C862.64 279.02 866.2 274.59 870.78 272.32C876.12 269.67 882.74 270.6 888.5 270.59C898.81 270.58 909.16 270.23 919.5 270.23C926.5 270.23 933.5 270.23 940.5 270.23C944.55 270.23 949.33 270.11 952.61 272.9C958.2 277.68 956.08 291.66 956.07 298.5C956.05 321.5 956 344.5 955.99 367.5C955.91 461.5 956.22 555.5 956.27 649.5C956.28 675.5 956.31 701.5 956.33 727.5C956.33 734.63 958.71 750.12 951.79 754.36C945.88 757.98 936.16 756.13 929.5 756.13C912.5 756.13 895.5 756.13 878.5 756.13C814.5 756.13 750.5 756.13 686.5 756.13C667.17 756.13 647.83 756.13 628.5 756.13C621.51 756.13 611.16 757.53 609.17 748.44C607.95 742.84 608.88 736.22 608.88 730.5C608.88 718.5 608.89 706.5 608.9 694.5C608.9 688.56 607.29 680.14 612.1 675.57C616.81 671.1 625.6 672.71 631.5 672.71C647.83 672.71 664.17 672.71 680.5 672.71C722.83 672.71 765.17 672.71 807.5 672.71C821.5 672.71 835.5 672.71 849.5 672.71C857.28 672.71 865.18 673.1 872.93 672.5C872.93 578.83 872.93 485.17 872.93 391.5C867.49 394.71 856.42 407.54 851.24 412.74C836.43 427.61 821.43 442.25 806.58 457.08C759.23 504.39 711.7 551.53 664.38 598.88C646.88 616.4 629.19 633.67 611.71 651.22C605.62 657.34 597.96 668.47 588.44 668.55C578.88 668.64 571.19 657.51 565.09 651.41C547.76 634.08 530.34 616.83 513.01 599.49C469.19 555.63 424.92 512.24 381.09 468.41C363.12 450.43 345.64 431.71 326.77 414.71C320.34 408.92 314.54 401.97 307.5 396.97C306.29 402.86 307 409.44 307 415.5C307 426.83 307.02 438.17 307.04 449.5C307.08 484.5 307.1 519.5 307.17 554.5C307.2 568.17 307.2 581.83 307.22 595.5C307.23 600.87 308.57 608.3 305.54 613.06C301.74 619.05 293.56 617.91 287.5 617.91C274.83 617.91 262.17 617.91 249.5 617.91C243.56 617.91 236.24 619.08 230.6 616.91C222.57 613.83 223.96 604.45 223.96 597.5C223.97 578.5 223.99 559.5 224.01 540.5C224.09 475.17 224.17 409.83 224.12 344.5C224.1 327.83 224.08 311.17 224.07 294.5C224.06 288.33 222.31 279.23 226.55 274.06C230.84 268.83 239.57 270.23 245.5 270.23C259.17 270.23 272.83 270.23 286.5 270.23C292.93 270.23 300.83 269.05 306.37 273.07C312.84 277.75 318.35 284.85 324 290.5C335.82 302.34 347.66 314.17 359.48 326.02C364.75 331.31 373.71 342.37 379.94 345.56C385.7 348.5 393.24 347.33 399.5 347.33C413.16 347.33 426.83 347.12 440.5 347.12C453.83 347.12 467.17 347.12 480.5 347.12C511.43 347.12 537.64 345.37 560.93 322.43C566.34 317.1 571.13 311.09 575.07 304.59C579.42 297.42 582.91 289.57 584.76 281.37C594.26 239.25 569.96 194.44 528.31 181.29C507.99 174.87 487.44 177.58 466.55 176.58C434.01 175.02 401.1 176.22 368.5 176.22C356.17 176.22 343.83 176.22 331.5 176.22C325.58 176.22 318.45 177.29 312.7 175.74C305.25 173.72 305.76 165.61 305.76 159.5C305.74 144.17 305.75 128.83 305.72 113.5C305.71 107.19 305.21 99.44 312.77 97.35C320.21 95.28 333.43 96.7 341.5 96.7C360.83 96.7 380.17 96.7 399.5 96.7C428.47 96.7 457.54 96.06 486.5 96.9C501.48 97.33 516.6 95.9 531.49 98.12C559.4 102.29 588.19 116.62 609.46 135.01C630.12 152.86 647.04 176.17 656.69 201.77C683.63 273.28 658.86 356.79 594.8 399.32C566.01 418.43 535.37 424.49 501.46 426.64C488.29 427.47 474.91 425.34 461.83 426.5ZM492.89 677.17C494.91 682.43 493.97 688.9 493.97 694.5C493.98 705.17 493.99 715.83 493.99 726.5C493.99 732.17 492.78 739.23 495.5 744.36C497.68 745.07 499.85 745.79 502.03 746.5C502.03 748.61 502.03 750.73 502.03 752.84C494.38 755.71 487.5 751.57 486.25 743.44C485.51 738.6 486.01 733.4 486.01 728.5C486.01 718.5 486.02 708.5 486.03 698.5C486.03 691.87 484.64 683.35 487 677.17C488.96 677.17 490.93 677.17 492.89 677.17ZM285.5 685.54C288.03 689.41 286.64 694.76 287.5 699.29C293.14 699.29 300.34 698.03 305.46 700.5C305.46 702.5 305.46 704.5 305.46 706.5C300.19 708.88 293.24 707.72 287.5 707.72C285.93 716.2 286.9 725.84 287 734.5C287.03 737.9 287.1 742.12 290.11 744.39C294.7 747.83 301.41 745.09 306.5 745C307.15 747.06 307.85 749.12 306.8 751.27C305.83 753.27 302.49 753.75 300.52 753.98C294.49 754.68 287.28 754.35 283.07 749.35C274.97 739.72 280.58 719.43 278.5 707.56C276.17 707.56 273.83 707.56 271.5 707.56C270.07 700.21 271.95 700.41 278.5 699.53C279.84 694.96 278.97 689.49 281.5 685.54C282.83 685.54 284.17 685.54 285.5 685.54ZM336.5 699.14C337.34 701.82 337.46 703.77 336.61 706.5C332.99 706.82 327.84 705.68 324.81 708.35C321.34 711.41 322.12 717.43 322.12 721.5C322.12 730.59 323.61 744.43 321.41 752.89C319.26 752.89 317.1 752.89 314.95 752.89C313.18 747.11 314 740.51 314 734.5C314.01 721.09 310.57 699.47 329.53 698.3C331.99 698.15 334.14 698.51 336.5 699.14ZM371.01 721.5C371.01 718.4 371.5 714.81 370.58 711.81C367.77 702.57 352.17 707.12 345.5 707.02C344.7 704.42 344.63 702.91 345.5 700.29C354.94 696.38 373.11 696.5 377.63 707.83C380.03 713.85 378.99 721.15 378.99 727.5C379 734.96 380.54 745.1 373.87 750.4C363.8 758.4 341.35 755.74 339.93 740.5C339.72 738.22 339.78 735.76 340.16 733.5C342.63 718.67 360.71 723.07 371.01 721.5ZM474.5 728.99C463.91 729.49 453.33 730 442.74 730.5C442.75 733.09 442.63 735.79 443.3 738.31C445.56 746.76 456.52 746.68 463.46 745.72C466.96 745.24 470.11 743.54 473.5 744.64C473.94 746.67 474.73 748.95 473.35 750.86C472.1 752.61 468.74 753 466.82 753.43C460.47 754.85 452.86 754.97 446.64 752.84C434.23 748.59 434.88 735.33 434.88 724.5C434.88 718.32 434.76 712.11 438.08 706.62C444.19 696.49 461.9 695.22 470.1 703.4C476.34 709.63 477.17 721.05 474.5 728.99ZM392.5 699.99C396.19 706.83 398.9 725.04 400.95 733.53C402.27 738.98 402.12 745.32 408.5 746.66C413.91 744.34 413.97 737.65 415.14 732.48C416.92 724.57 419.94 705.68 423.5 699.54C425.5 699.54 427.5 699.54 429.5 699.54C430.39 704.34 428.56 709.1 427.49 713.87C425.54 722.53 423.5 731.18 421.44 739.81C419.76 746.88 417.87 753.71 409.5 754.12C405.74 754.31 401.1 754.16 398.5 750.97C395.37 747.13 394.67 741.39 393.61 736.75C391.06 725.56 386.38 711.74 385.81 700.5C388.24 699.08 389.79 699.2 392.5 699.99ZM468.26 721.5C468.22 717.48 468.27 713.19 465.53 709.96C460.7 704.28 448.62 704.48 444.55 710.99C442.57 714.16 442.74 717.9 442.74 721.5C448.82 723.17 462.18 723.17 468.26 721.5ZM370.5 728.74C362.28 728.74 347.25 726.24 347.81 738.5C347.88 740.18 348.22 741.9 349.21 743.29C352.98 748.57 365.78 748.2 369.48 743C372.11 739.29 371.26 732.88 370.5 728.74Z" fill="#f5be6b" fill-rule="evenodd" stroke="#f5be6b" stroke-width="0.25" stroke-linejoin="round"/>
</svg>